<svg width="24" height="24" viewBox="0 0 24 24" fill="none" xmlns="http://www.w3.org/2000/svg">
<circle cx="12" cy="12" r="12" fill="#D6E4E5"/>
<path d="M12.0001 13.5982C10.4573 13.5982 9.20093 12.3419 9.20093 10.7991C9.20093 9.25639 10.4573 8 12.0001 8C13.5428 8 14.7992 9.25639 14.7992 10.7991C14.7992 12.3419 13.5428 13.5982 12.0001 13.5982ZM12.0001 8.79766C10.8985 8.79766 10.0015 9.69467 10.0015 10.7962C10.0015 11.8977 10.8985 12.7947 12.0001 12.7947C13.1016 12.7947 13.9986 11.8977 13.9986 10.7962C13.9986 9.69467 13.1016 8.79766 12.0001 8.79766Z" fill="#497174"/>
<path d="M16 16.7974H15.1994C15.1994 15.0326 13.7648 13.5979 12 13.5979C10.2352 13.5979 8.80058 15.0326 8.80058 16.7974H8C8 14.5914 9.79401 12.7974 12 12.7974C14.206 12.7974 16 14.5914 16 16.7974Z" fill="#497174"/>
</svg>
