<svg width="24" height="24" viewBox="0 0 24 24" fill="none" xmlns="http://www.w3.org/2000/svg">
<circle cx="12" cy="12" r="12" fill="#D6E4E5"/>
<path d="M8.28252 15.3936H15.7175C15.876 15.3936 16 15.2696 16 15.1111V8.8062C16 8.64772 15.876 8.52369 15.7175 8.52369H14.3187V8.28252C14.3187 8.12403 14.1947 8 14.0362 8C13.8777 8 13.7537 8.12403 13.7537 8.28252V8.52369H10.2946V8.28252C10.2946 8.12403 10.1705 8 10.0121 8C9.85357 8 9.72954 8.12403 9.72954 8.28252V8.52369H8.28252C8.12403 8.52369 8 8.64772 8 8.8062V15.118C8 15.2696 8.13092 15.3936 8.28252 15.3936ZM8.56503 9.08872H9.72954V9.24031C9.72954 9.39879 9.85357 9.52283 10.0121 9.52283C10.1705 9.52283 10.2946 9.39879 10.2946 9.24031V9.08872H13.7537V9.24031C13.7537 9.39879 13.8777 9.52283 14.0362 9.52283C14.1947 9.52283 14.3187 9.39879 14.3187 9.24031V9.08872H15.4419V9.81912H8.56503V9.08872ZM8.56503 10.3842H15.435V14.8355H8.56503V10.3842Z" fill="#497174"/>
<path d="M14.0362 11.6794H9.97075C9.81226 11.6794 9.68823 11.8035 9.68823 11.962C9.68823 12.1204 9.81226 12.2445 9.97075 12.2445H14.0362C14.1947 12.2445 14.3187 12.1204 14.3187 11.962C14.3187 11.8035 14.1947 11.6794 14.0362 11.6794Z" fill="#497174"/>
<path d="M12.0035 13.0439H9.97075C9.81226 13.0439 9.68823 13.168 9.68823 13.3265C9.68823 13.4849 9.81226 13.609 9.97075 13.609H12.0035C12.162 13.609 12.286 13.4849 12.286 13.3265C12.286 13.168 12.162 13.0439 12.0035 13.0439Z" fill="#497174"/>
</svg>
