<svg width="24" height="24" viewBox="0 0 24 24" fill="none" xmlns="http://www.w3.org/2000/svg">
<circle cx="12" cy="12" r="12" fill="#D6E4E5"/>
<path d="M16 11.7778C16.0015 12.3644 15.8645 12.9431 15.6 13.4667C15.2864 14.0941 14.8043 14.6219 14.2077 14.9908C13.6112 15.3597 12.9237 15.5553 12.2222 15.5556C11.6356 15.5571 11.0569 15.42 10.5333 15.1556L8 16L8.84444 13.4667C8.57997 12.9431 8.44291 12.3644 8.44444 11.7778C8.44472 11.0763 8.64027 10.3888 9.00921 9.79225C9.37814 9.19568 9.90589 8.7136 10.5333 8.40001C11.0569 8.13554 11.6356 7.99848 12.2222 8.00001H12.4444C13.3708 8.05112 14.2458 8.44213 14.9018 9.09817C15.5579 9.75421 15.9489 10.6292 16 11.5556V11.7778Z" stroke="#497174" stroke-linecap="round" stroke-linejoin="round"/>
</svg>
