<svg width="24" height="24" viewBox="0 0 24 24" fill="none" xmlns="http://www.w3.org/2000/svg">
<circle cx="12" cy="12" r="12" fill="#D6E4E5"/>
<path d="M11.113 14.2261C11.8723 14.2261 12.5626 13.9569 13.1009 13.5013L15.5168 15.9172C15.572 15.9724 15.6411 16 15.717 16C15.7929 16 15.862 15.9724 15.9172 15.9172C16.0276 15.8067 16.0276 15.6273 15.9172 15.5168L13.5013 13.1009C13.95 12.5626 14.2261 11.8654 14.2261 11.113C14.2261 9.39431 12.8318 8 11.113 8C9.40121 8 8 9.40121 8 11.113C8 12.8318 9.40121 14.2261 11.113 14.2261ZM11.113 8.56601C12.5211 8.56601 13.6601 9.71182 13.6601 11.113C13.6601 12.5211 12.5211 13.6601 11.113 13.6601C9.70492 13.6601 8.56601 12.5142 8.56601 11.113C8.56601 9.71182 9.71182 8.56601 11.113 8.56601Z" fill="#497174"/>
</svg>
