<svg width="142" height="48" viewBox="0 0 142 48" fill="none" xmlns="http://www.w3.org/2000/svg">
<path fill-rule="evenodd" clip-rule="evenodd" d="M24 48C37.2548 48 48 37.2548 48 24C48 10.7452 37.2548 0 24 0C10.7452 0 0 10.7452 0 24C0 37.2548 10.7452 48 24 48ZM35.442 18.8258C37.2349 18.8258 38.6901 20.281 38.6901 22.0739C38.6901 23.399 37.8846 24.5424 36.8192 25.062C36.8712 25.3739 36.8972 25.6857 36.8972 26.0235C36.8972 31.0125 31.1027 35.04 23.931 35.04C16.7594 35.04 10.9649 31.0125 10.9649 26.0235C10.9649 25.6857 10.9908 25.3479 11.0428 25.0361C9.89952 24.5164 9.12 23.399 9.12 22.0739C9.12 20.281 10.5751 18.8258 12.368 18.8258C13.2255 18.8258 14.031 19.1896 14.6027 19.7353C16.8373 18.0983 19.9295 17.0849 23.3854 16.981L25.0224 9.23765C25.0743 9.08174 25.1523 8.95181 25.2822 8.87386C25.4121 8.7959 25.568 8.76994 25.7239 8.7959L31.1027 9.93922C31.4664 9.1597 32.246 8.64 33.1554 8.64C34.4287 8.64 35.468 9.67939 35.468 10.9526C35.468 12.2258 34.4287 13.2652 33.1554 13.2652C31.9082 13.2652 30.8948 12.2778 30.8428 11.0566L26.0357 10.0431L24.5546 16.981C27.9326 17.1108 30.9987 18.1502 33.2074 19.7353C33.779 19.1636 34.5586 18.8258 35.442 18.8258ZM18.7861 22.0739C17.5129 22.0739 16.4736 23.1132 16.4736 24.3864C16.4736 25.6597 17.5129 26.699 18.7861 26.699C20.0594 26.699 21.0987 25.6597 21.0987 24.3864C21.0987 23.1132 20.0594 22.0739 18.7861 22.0739ZM23.9051 32.1817C24.7885 32.1817 27.8027 32.0778 29.3877 30.4928C29.6216 30.2589 29.6216 29.8951 29.4397 29.6353C29.2058 29.4014 28.8161 29.4014 28.5822 29.6353C27.5688 30.6227 25.4641 30.9864 23.931 30.9864C22.398 30.9864 20.2672 30.6227 19.2798 29.6353C19.046 29.4014 18.6562 29.4014 18.4224 29.6353C18.1885 29.8692 18.1885 30.2589 18.4224 30.4928C19.9814 32.0518 23.0216 32.1817 23.9051 32.1817ZM26.6594 24.3864C26.6594 25.6597 27.6987 26.699 28.972 26.699C30.2452 26.699 31.2846 25.6597 31.2846 24.3864C31.2846 23.1132 30.2452 22.0739 28.972 22.0739C27.6987 22.0739 26.6594 23.1132 26.6594 24.3864Z" fill="#EB6440"/>
<path d="M59.0114 29.5V17.8636H63.6023C64.4811 17.8636 65.2311 18.0208 65.8523 18.3352C66.4773 18.6458 66.9527 19.0871 67.2784 19.6591C67.608 20.2273 67.7727 20.8958 67.7727 21.6648C67.7727 22.4375 67.6061 23.1023 67.2727 23.6591C66.9394 24.2121 66.4564 24.6364 65.8239 24.9318C65.1951 25.2273 64.4337 25.375 63.5398 25.375H60.4659V23.3977H63.142C63.6117 23.3977 64.0019 23.3333 64.3125 23.2045C64.6231 23.0758 64.8542 22.8826 65.0057 22.625C65.161 22.3674 65.2386 22.0473 65.2386 21.6648C65.2386 21.2784 65.161 20.9527 65.0057 20.6875C64.8542 20.4223 64.6212 20.2216 64.3068 20.0852C63.9962 19.9451 63.6042 19.875 63.1307 19.875H61.4716V29.5H59.0114ZM65.2955 24.2045L68.1875 29.5H65.4716L62.642 24.2045H65.2955ZM73.3026 29.6705C72.4048 29.6705 71.6321 29.4886 70.9844 29.125C70.3404 28.7576 69.8442 28.2386 69.4957 27.5682C69.1473 26.8939 68.973 26.0966 68.973 25.1761C68.973 24.2784 69.1473 23.4905 69.4957 22.8125C69.8442 22.1345 70.3348 21.6061 70.9673 21.2273C71.6037 20.8485 72.3499 20.6591 73.206 20.6591C73.7817 20.6591 74.3177 20.7519 74.8139 20.9375C75.3139 21.1193 75.7495 21.3939 76.1207 21.7614C76.4957 22.1288 76.7874 22.5909 76.9957 23.1477C77.2041 23.7008 77.3082 24.3485 77.3082 25.0909V25.7557H69.9389V24.2557H75.0298C75.0298 23.9072 74.9541 23.5985 74.8026 23.3295C74.651 23.0606 74.4408 22.8504 74.1719 22.6989C73.9067 22.5436 73.598 22.4659 73.2457 22.4659C72.8783 22.4659 72.5526 22.5511 72.2685 22.7216C71.9882 22.8883 71.7685 23.1136 71.6094 23.3977C71.4503 23.678 71.3688 23.9905 71.3651 24.3352V25.7614C71.3651 26.1932 71.4446 26.5663 71.6037 26.8807C71.7666 27.1951 71.9957 27.4375 72.2912 27.608C72.5866 27.7784 72.937 27.8636 73.3423 27.8636C73.6113 27.8636 73.8575 27.8258 74.081 27.75C74.3045 27.6742 74.4957 27.5606 74.6548 27.4091C74.8139 27.2576 74.9351 27.072 75.0185 26.8523L77.2571 27C77.1435 27.5379 76.9105 28.0076 76.5582 28.4091C76.2098 28.8068 75.759 29.1174 75.206 29.3409C74.6567 29.5606 74.0223 29.6705 73.3026 29.6705ZM82.1037 29.642C81.4408 29.642 80.8404 29.4716 80.3026 29.1307C79.7685 28.786 79.3442 28.2803 79.0298 27.6136C78.7192 26.9432 78.5639 26.1212 78.5639 25.1477C78.5639 24.1477 78.7249 23.3163 79.0469 22.6534C79.3688 21.9867 79.7969 21.4886 80.331 21.1591C80.8688 20.8258 81.4579 20.6591 82.098 20.6591C82.5866 20.6591 82.9938 20.7424 83.3196 20.9091C83.6491 21.072 83.9143 21.2765 84.1151 21.5227C84.3196 21.7652 84.4749 22.0038 84.581 22.2386H84.6548V17.8636H87.0696V29.5H84.6832V28.1023H84.581C84.4673 28.3447 84.3063 28.5852 84.098 28.8239C83.8935 29.0587 83.6264 29.2538 83.2969 29.4091C82.9711 29.5644 82.5734 29.642 82.1037 29.642ZM82.8707 27.7159C83.2609 27.7159 83.5904 27.6098 83.8594 27.3977C84.1321 27.1818 84.3404 26.8807 84.4844 26.4943C84.6321 26.108 84.706 25.6553 84.706 25.1364C84.706 24.6174 84.634 24.1667 84.4901 23.7841C84.3461 23.4015 84.1378 23.1061 83.8651 22.8977C83.5923 22.6894 83.2609 22.5852 82.8707 22.5852C82.473 22.5852 82.1378 22.6932 81.8651 22.9091C81.5923 23.125 81.3859 23.4242 81.2457 23.8068C81.1056 24.1894 81.0355 24.6326 81.0355 25.1364C81.0355 25.6439 81.1056 26.0928 81.2457 26.483C81.3897 26.8693 81.5961 27.1723 81.8651 27.392C82.1378 27.608 82.473 27.7159 82.8707 27.7159ZM92.2756 29.642C91.6127 29.642 91.0123 29.4716 90.4744 29.1307C89.9403 28.786 89.5161 28.2803 89.2017 27.6136C88.8911 26.9432 88.7358 26.1212 88.7358 25.1477C88.7358 24.1477 88.8968 23.3163 89.2188 22.6534C89.5407 21.9867 89.9688 21.4886 90.5028 21.1591C91.0407 20.8258 91.6297 20.6591 92.2699 20.6591C92.7585 20.6591 93.1657 20.7424 93.4915 20.9091C93.821 21.072 94.0862 21.2765 94.2869 21.5227C94.4915 21.7652 94.6468 22.0038 94.7528 22.2386H94.8267V17.8636H97.2415V29.5H94.8551V28.1023H94.7528C94.6392 28.3447 94.4782 28.5852 94.2699 28.8239C94.0653 29.0587 93.7983 29.2538 93.4688 29.4091C93.143 29.5644 92.7453 29.642 92.2756 29.642ZM93.0426 27.7159C93.4328 27.7159 93.7623 27.6098 94.0312 27.3977C94.304 27.1818 94.5123 26.8807 94.6562 26.4943C94.804 26.108 94.8778 25.6553 94.8778 25.1364C94.8778 24.6174 94.8059 24.1667 94.6619 23.7841C94.518 23.4015 94.3097 23.1061 94.0369 22.8977C93.7642 22.6894 93.4328 22.5852 93.0426 22.5852C92.6449 22.5852 92.3097 22.6932 92.0369 22.9091C91.7642 23.125 91.5578 23.4242 91.4176 23.8068C91.2775 24.1894 91.2074 24.6326 91.2074 25.1364C91.2074 25.6439 91.2775 26.0928 91.4176 26.483C91.5616 26.8693 91.768 27.1723 92.0369 27.392C92.3097 27.608 92.6449 27.7159 93.0426 27.7159ZM99.2315 29.5V20.7727H101.652V29.5H99.2315ZM100.447 19.6477C100.088 19.6477 99.7789 19.5284 99.5213 19.2898C99.2675 19.0473 99.1406 18.7576 99.1406 18.4205C99.1406 18.0871 99.2675 17.8011 99.5213 17.5625C99.7789 17.3201 100.088 17.1989 100.447 17.1989C100.807 17.1989 101.114 17.3201 101.368 17.5625C101.625 17.8011 101.754 18.0871 101.754 18.4205C101.754 18.7576 101.625 19.0473 101.368 19.2898C101.114 19.5284 100.807 19.6477 100.447 19.6477ZM108.233 20.7727V22.5909H102.977V20.7727H108.233ZM104.17 18.6818H106.591V26.8182C106.591 27.0417 106.625 27.2159 106.693 27.3409C106.761 27.4621 106.856 27.5473 106.977 27.5966C107.102 27.6458 107.246 27.6705 107.409 27.6705C107.523 27.6705 107.636 27.661 107.75 27.642C107.864 27.6193 107.951 27.6023 108.011 27.5909L108.392 29.392C108.271 29.4299 108.1 29.4735 107.881 29.5227C107.661 29.5758 107.394 29.608 107.08 29.6193C106.496 29.642 105.985 29.5644 105.545 29.3864C105.11 29.2083 104.771 28.9318 104.528 28.5568C104.286 28.1818 104.167 27.7083 104.17 27.1364V18.6818ZM111.861 29.5H109.224L113.241 17.8636H116.412L120.423 29.5H117.787L114.872 20.5227H114.781L111.861 29.5ZM111.696 24.9261H117.923V26.8466H111.696V24.9261ZM121.778 32.7727V20.7727H124.165V22.2386H124.273C124.379 22.0038 124.532 21.7652 124.733 21.5227C124.938 21.2765 125.203 21.072 125.528 20.9091C125.858 20.7424 126.267 20.6591 126.756 20.6591C127.392 20.6591 127.979 20.8258 128.517 21.1591C129.055 21.4886 129.485 21.9867 129.807 22.6534C130.129 23.3163 130.29 24.1477 130.29 25.1477C130.29 26.1212 130.133 26.9432 129.818 27.6136C129.508 28.2803 129.083 28.786 128.545 29.1307C128.011 29.4716 127.413 29.642 126.75 29.642C126.28 29.642 125.881 29.5644 125.551 29.4091C125.225 29.2538 124.958 29.0587 124.75 28.8239C124.542 28.5852 124.383 28.3447 124.273 28.1023H124.199V32.7727H121.778ZM124.148 25.1364C124.148 25.6553 124.22 26.108 124.364 26.4943C124.508 26.8807 124.716 27.1818 124.989 27.3977C125.261 27.6098 125.593 27.7159 125.983 27.7159C126.377 27.7159 126.71 27.608 126.983 27.392C127.256 27.1723 127.462 26.8693 127.602 26.483C127.746 26.0928 127.818 25.6439 127.818 25.1364C127.818 24.6326 127.748 24.1894 127.608 23.8068C127.468 23.4242 127.261 23.125 126.989 22.9091C126.716 22.6932 126.381 22.5852 125.983 22.5852C125.589 22.5852 125.256 22.6894 124.983 22.8977C124.714 23.1061 124.508 23.4015 124.364 23.7841C124.22 24.1667 124.148 24.6174 124.148 25.1364ZM131.903 32.7727V20.7727H134.29V22.2386H134.398C134.504 22.0038 134.657 21.7652 134.858 21.5227C135.063 21.2765 135.328 21.072 135.653 20.9091C135.983 20.7424 136.392 20.6591 136.881 20.6591C137.517 20.6591 138.104 20.8258 138.642 21.1591C139.18 21.4886 139.61 21.9867 139.932 22.6534C140.254 23.3163 140.415 24.1477 140.415 25.1477C140.415 26.1212 140.258 26.9432 139.943 27.6136C139.633 28.2803 139.208 28.786 138.67 29.1307C138.136 29.4716 137.538 29.642 136.875 29.642C136.405 29.642 136.006 29.5644 135.676 29.4091C135.35 29.2538 135.083 29.0587 134.875 28.8239C134.667 28.5852 134.508 28.3447 134.398 28.1023H134.324V32.7727H131.903ZM134.273 25.1364C134.273 25.6553 134.345 26.108 134.489 26.4943C134.633 26.8807 134.841 27.1818 135.114 27.3977C135.386 27.6098 135.718 27.7159 136.108 27.7159C136.502 27.7159 136.835 27.608 137.108 27.392C137.381 27.1723 137.587 26.8693 137.727 26.483C137.871 26.0928 137.943 25.6439 137.943 25.1364C137.943 24.6326 137.873 24.1894 137.733 23.8068C137.593 23.4242 137.386 23.125 137.114 22.9091C136.841 22.6932 136.506 22.5852 136.108 22.5852C135.714 22.5852 135.381 22.6894 135.108 22.8977C134.839 23.1061 134.633 23.4015 134.489 23.7841C134.345 24.1667 134.273 24.6174 134.273 25.1364Z" fill="#111111"/>
</svg>
