<svg width="118" height="24" viewBox="0 0 118 24" fill="none" xmlns="http://www.w3.org/2000/svg">
<path fill-rule="evenodd" clip-rule="evenodd" d="M12 24C18.6274 24 24 18.6274 24 12C24 5.37259 18.6274 0 12 0C5.37259 0 0 5.37259 0 12C0 18.6274 5.37259 24 12 24ZM17.721 9.41292C18.6175 9.41292 19.345 10.1405 19.345 11.0369C19.345 11.6995 18.9423 12.2712 18.4096 12.531C18.4356 12.6869 18.4486 12.8428 18.4486 13.0117C18.4486 15.5062 15.5513 17.52 11.9655 17.52C8.3797 17.52 5.48244 15.5062 5.48244 13.0117C5.48244 12.8428 5.49542 12.6739 5.52142 12.518C4.94976 12.2582 4.56 11.6995 4.56 11.0369C4.56 10.1405 5.28756 9.41292 6.18401 9.41292C6.61277 9.41292 7.01551 9.59479 7.30133 9.86765C8.41867 9.04913 9.96473 8.54244 11.6927 8.49048L12.5112 4.61882C12.5372 4.54087 12.5761 4.4759 12.6411 4.43693C12.7061 4.39795 12.784 4.38497 12.862 4.39795L15.5513 4.96961C15.7332 4.57985 16.123 4.32 16.5777 4.32C17.2143 4.32 17.734 4.8397 17.734 5.4763C17.734 6.11292 17.2143 6.63259 16.5777 6.63259C15.9541 6.63259 15.4474 6.13889 15.4214 5.52828L13.0179 5.02157L12.2773 8.49048C13.9663 8.55542 15.4994 9.07512 16.6037 9.86765C16.8895 9.58181 17.2793 9.41292 17.721 9.41292ZM9.39307 11.0369C8.75645 11.0369 8.23678 11.5566 8.23678 12.1932C8.23678 12.8298 8.75645 13.3495 9.39307 13.3495C10.0297 13.3495 10.5494 12.8298 10.5494 12.1932C10.5494 11.5566 10.0297 11.0369 9.39307 11.0369ZM11.9525 16.0909C12.3942 16.0909 13.9013 16.0389 14.6939 15.2464C14.8108 15.1295 14.8108 14.9476 14.7198 14.8176C14.6029 14.7007 14.408 14.7007 14.2911 14.8176C13.7844 15.3113 12.732 15.4932 11.9655 15.4932C11.199 15.4932 10.1336 15.3113 9.63991 14.8176C9.52298 14.7007 9.3281 14.7007 9.21118 14.8176C9.09425 14.9346 9.09425 15.1295 9.21118 15.2464C9.9907 16.0259 11.5108 16.0909 11.9525 16.0909ZM13.3297 12.1932C13.3297 12.8298 13.8494 13.3495 14.486 13.3495C15.1226 13.3495 15.6423 12.8298 15.6423 12.1932C15.6423 11.5566 15.1226 11.0369 14.486 11.0369C13.8494 11.0369 13.3297 11.5566 13.3297 12.1932Z" fill="#497174"/>
<path d="M35.0114 17.5V5.86364H39.6023C40.4811 5.86364 41.2311 6.02083 41.8523 6.33523C42.4773 6.64583 42.9527 7.08712 43.2784 7.65909C43.608 8.22727 43.7727 8.89583 43.7727 9.66477C43.7727 10.4375 43.6061 11.1023 43.2727 11.6591C42.9394 12.2121 42.4564 12.6364 41.8239 12.9318C41.1951 13.2273 40.4337 13.375 39.5398 13.375H36.4659V11.3977H39.142C39.6117 11.3977 40.0019 11.3333 40.3125 11.2045C40.6231 11.0758 40.8542 10.8826 41.0057 10.625C41.161 10.3674 41.2386 10.0473 41.2386 9.66477C41.2386 9.27841 41.161 8.95265 41.0057 8.6875C40.8542 8.42235 40.6212 8.22159 40.3068 8.08523C39.9962 7.94508 39.6042 7.875 39.1307 7.875H37.4716V17.5H35.0114ZM41.2955 12.2045L44.1875 17.5H41.4716L38.642 12.2045H41.2955ZM49.3026 17.6705C48.4048 17.6705 47.6321 17.4886 46.9844 17.125C46.3404 16.7576 45.8442 16.2386 45.4957 15.5682C45.1473 14.8939 44.973 14.0966 44.973 13.1761C44.973 12.2784 45.1473 11.4905 45.4957 10.8125C45.8442 10.1345 46.3348 9.60606 46.9673 9.22727C47.6037 8.84848 48.3499 8.65909 49.206 8.65909C49.7817 8.65909 50.3177 8.75189 50.8139 8.9375C51.3139 9.11932 51.7495 9.39394 52.1207 9.76136C52.4957 10.1288 52.7874 10.5909 52.9957 11.1477C53.2041 11.7008 53.3082 12.3485 53.3082 13.0909V13.7557H45.9389V12.2557H51.0298C51.0298 11.9072 50.9541 11.5985 50.8026 11.3295C50.651 11.0606 50.4408 10.8504 50.1719 10.6989C49.9067 10.5436 49.598 10.4659 49.2457 10.4659C48.8783 10.4659 48.5526 10.5511 48.2685 10.7216C47.9882 10.8883 47.7685 11.1136 47.6094 11.3977C47.4503 11.678 47.3688 11.9905 47.3651 12.3352V13.7614C47.3651 14.1932 47.4446 14.5663 47.6037 14.8807C47.7666 15.1951 47.9957 15.4375 48.2912 15.608C48.5866 15.7784 48.937 15.8636 49.3423 15.8636C49.6113 15.8636 49.8575 15.8258 50.081 15.75C50.3045 15.6742 50.4957 15.5606 50.6548 15.4091C50.8139 15.2576 50.9351 15.072 51.0185 14.8523L53.2571 15C53.1435 15.5379 52.9105 16.0076 52.5582 16.4091C52.2098 16.8068 51.759 17.1174 51.206 17.3409C50.6567 17.5606 50.0223 17.6705 49.3026 17.6705ZM58.1037 17.642C57.4408 17.642 56.8404 17.4716 56.3026 17.1307C55.7685 16.786 55.3442 16.2803 55.0298 15.6136C54.7192 14.9432 54.5639 14.1212 54.5639 13.1477C54.5639 12.1477 54.7249 11.3163 55.0469 10.6534C55.3688 9.98674 55.7969 9.48864 56.331 9.15909C56.8688 8.82576 57.4579 8.65909 58.098 8.65909C58.5866 8.65909 58.9938 8.74242 59.3196 8.90909C59.6491 9.07197 59.9143 9.27652 60.1151 9.52273C60.3196 9.76515 60.4749 10.0038 60.581 10.2386H60.6548V5.86364H63.0696V17.5H60.6832V16.1023H60.581C60.4673 16.3447 60.3063 16.5852 60.098 16.8239C59.8935 17.0587 59.6264 17.2538 59.2969 17.4091C58.9711 17.5644 58.5734 17.642 58.1037 17.642ZM58.8707 15.7159C59.2609 15.7159 59.5904 15.6098 59.8594 15.3977C60.1321 15.1818 60.3404 14.8807 60.4844 14.4943C60.6321 14.108 60.706 13.6553 60.706 13.1364C60.706 12.6174 60.634 12.1667 60.4901 11.7841C60.3461 11.4015 60.1378 11.1061 59.8651 10.8977C59.5923 10.6894 59.2609 10.5852 58.8707 10.5852C58.473 10.5852 58.1378 10.6932 57.8651 10.9091C57.5923 11.125 57.3859 11.4242 57.2457 11.8068C57.1056 12.1894 57.0355 12.6326 57.0355 13.1364C57.0355 13.6439 57.1056 14.0928 57.2457 14.483C57.3897 14.8693 57.5961 15.1723 57.8651 15.392C58.1378 15.608 58.473 15.7159 58.8707 15.7159ZM68.2756 17.642C67.6127 17.642 67.0123 17.4716 66.4744 17.1307C65.9403 16.786 65.5161 16.2803 65.2017 15.6136C64.8911 14.9432 64.7358 14.1212 64.7358 13.1477C64.7358 12.1477 64.8968 11.3163 65.2188 10.6534C65.5407 9.98674 65.9688 9.48864 66.5028 9.15909C67.0407 8.82576 67.6297 8.65909 68.2699 8.65909C68.7585 8.65909 69.1657 8.74242 69.4915 8.90909C69.821 9.07197 70.0862 9.27652 70.2869 9.52273C70.4915 9.76515 70.6468 10.0038 70.7528 10.2386H70.8267V5.86364H73.2415V17.5H70.8551V16.1023H70.7528C70.6392 16.3447 70.4782 16.5852 70.2699 16.8239C70.0653 17.0587 69.7983 17.2538 69.4688 17.4091C69.143 17.5644 68.7453 17.642 68.2756 17.642ZM69.0426 15.7159C69.4328 15.7159 69.7623 15.6098 70.0312 15.3977C70.304 15.1818 70.5123 14.8807 70.6562 14.4943C70.804 14.108 70.8778 13.6553 70.8778 13.1364C70.8778 12.6174 70.8059 12.1667 70.6619 11.7841C70.518 11.4015 70.3097 11.1061 70.0369 10.8977C69.7642 10.6894 69.4328 10.5852 69.0426 10.5852C68.6449 10.5852 68.3097 10.6932 68.0369 10.9091C67.7642 11.125 67.5578 11.4242 67.4176 11.8068C67.2775 12.1894 67.2074 12.6326 67.2074 13.1364C67.2074 13.6439 67.2775 14.0928 67.4176 14.483C67.5616 14.8693 67.768 15.1723 68.0369 15.392C68.3097 15.608 68.6449 15.7159 69.0426 15.7159ZM75.2315 17.5V8.77273H77.652V17.5H75.2315ZM76.4474 7.64773C76.0876 7.64773 75.7789 7.52841 75.5213 7.28977C75.2675 7.04735 75.1406 6.75758 75.1406 6.42045C75.1406 6.08712 75.2675 5.80114 75.5213 5.5625C75.7789 5.32008 76.0876 5.19886 76.4474 5.19886C76.8073 5.19886 77.1141 5.32008 77.3679 5.5625C77.6255 5.80114 77.7543 6.08712 77.7543 6.42045C77.7543 6.75758 77.6255 7.04735 77.3679 7.28977C77.1141 7.52841 76.8073 7.64773 76.4474 7.64773ZM84.233 8.77273V10.5909H78.9773V8.77273H84.233ZM80.1705 6.68182H82.5909V14.8182C82.5909 15.0417 82.625 15.2159 82.6932 15.3409C82.7614 15.4621 82.8561 15.5473 82.9773 15.5966C83.1023 15.6458 83.2462 15.6705 83.4091 15.6705C83.5227 15.6705 83.6364 15.661 83.75 15.642C83.8636 15.6193 83.9508 15.6023 84.0114 15.5909L84.392 17.392C84.2708 17.4299 84.1004 17.4735 83.8807 17.5227C83.661 17.5758 83.3939 17.608 83.0795 17.6193C82.4962 17.642 81.9848 17.5644 81.5455 17.3864C81.1098 17.2083 80.7708 16.9318 80.5284 16.5568C80.286 16.1818 80.1667 15.7083 80.1705 15.1364V6.68182ZM87.8608 17.5H85.2244L89.2415 5.86364H92.4119L96.4233 17.5H93.7869L90.8722 8.52273H90.7812L87.8608 17.5ZM87.696 12.9261H93.9233V14.8466H87.696V12.9261ZM97.7784 20.7727V8.77273H100.165V10.2386H100.273C100.379 10.0038 100.532 9.76515 100.733 9.52273C100.938 9.27652 101.203 9.07197 101.528 8.90909C101.858 8.74242 102.267 8.65909 102.756 8.65909C103.392 8.65909 103.979 8.82576 104.517 9.15909C105.055 9.48864 105.485 9.98674 105.807 10.6534C106.129 11.3163 106.29 12.1477 106.29 13.1477C106.29 14.1212 106.133 14.9432 105.818 15.6136C105.508 16.2803 105.083 16.786 104.545 17.1307C104.011 17.4716 103.413 17.642 102.75 17.642C102.28 17.642 101.881 17.5644 101.551 17.4091C101.225 17.2538 100.958 17.0587 100.75 16.8239C100.542 16.5852 100.383 16.3447 100.273 16.1023H100.199V20.7727H97.7784ZM100.148 13.1364C100.148 13.6553 100.22 14.108 100.364 14.4943C100.508 14.8807 100.716 15.1818 100.989 15.3977C101.261 15.6098 101.593 15.7159 101.983 15.7159C102.377 15.7159 102.71 15.608 102.983 15.392C103.256 15.1723 103.462 14.8693 103.602 14.483C103.746 14.0928 103.818 13.6439 103.818 13.1364C103.818 12.6326 103.748 12.1894 103.608 11.8068C103.468 11.4242 103.261 11.125 102.989 10.9091C102.716 10.6932 102.381 10.5852 101.983 10.5852C101.589 10.5852 101.256 10.6894 100.983 10.8977C100.714 11.1061 100.508 11.4015 100.364 11.7841C100.22 12.1667 100.148 12.6174 100.148 13.1364ZM107.903 20.7727V8.77273H110.29V10.2386H110.398C110.504 10.0038 110.657 9.76515 110.858 9.52273C111.063 9.27652 111.328 9.07197 111.653 8.90909C111.983 8.74242 112.392 8.65909 112.881 8.65909C113.517 8.65909 114.104 8.82576 114.642 9.15909C115.18 9.48864 115.61 9.98674 115.932 10.6534C116.254 11.3163 116.415 12.1477 116.415 13.1477C116.415 14.1212 116.258 14.9432 115.943 15.6136C115.633 16.2803 115.208 16.786 114.67 17.1307C114.136 17.4716 113.538 17.642 112.875 17.642C112.405 17.642 112.006 17.5644 111.676 17.4091C111.35 17.2538 111.083 17.0587 110.875 16.8239C110.667 16.5852 110.508 16.3447 110.398 16.1023H110.324V20.7727H107.903ZM110.273 13.1364C110.273 13.6553 110.345 14.108 110.489 14.4943C110.633 14.8807 110.841 15.1818 111.114 15.3977C111.386 15.6098 111.718 15.7159 112.108 15.7159C112.502 15.7159 112.835 15.608 113.108 15.392C113.381 15.1723 113.587 14.8693 113.727 14.483C113.871 14.0928 113.943 13.6439 113.943 13.1364C113.943 12.6326 113.873 12.1894 113.733 11.8068C113.593 11.4242 113.386 11.125 113.114 10.9091C112.841 10.6932 112.506 10.5852 112.108 10.5852C111.714 10.5852 111.381 10.6894 111.108 10.8977C110.839 11.1061 110.633 11.4015 110.489 11.7841C110.345 12.1667 110.273 12.6174 110.273 13.1364Z" fill="#111111"/>
</svg>
